{"accessors":[{"bufferView":0,"byteOffset":0,"componentType":5126,"count":4820,"max":[1.35482585430145,0.618060946464539,1.7106591463089],"min":[-1.18115341663361,-0.00573050975799561,0.278452157974243],"normalized":false,"type":"VEC3"},{"bufferView":1,"byteOffset":0,"componentType":5126,"count":4820,"max":[1.0,0.0,-0.0000152590218931437,1.0],"min":[1.0,0.0,-0.0000457784626632929,-1.0],"normalized":false,"type":"VEC4"},{"bufferView":2,"byteOffset":0,"componentType":5126,"count":4820,"max":[1.0,1.0,1.0],"min":[-1.0,-1.0,-1.0],"normalized":false,"type":"VEC3"},{"bufferView":3,"byteOffset":0,"componentType":5126,"count":4820,"max":[0.984842121601105,0.946721494197845],"min":[0.674660623073578,0.316287636756897],"normalized":false,"type":"VEC2"},{"bufferView":4,"byteOffset":0,"componentType":5126,"count":4820,"max":[0.0,1.0],"min":[0.0,1.0],"normalized":false,"type":"VEC2"},{"bufferView":5,"byteOffset":0,"componentType":5123,"count":14952,"max":[4819.0],"min":[0.0],"normalized":false,"type":"SCALAR"},{"bufferView":6,"byteOffset":0,"componentType":5126,"count":4317,"max":[1.96965837478638,1.44069743156433,1.67118120193481],"min":[-1.97407603263855,0.34800860285759,0.317930042743683],"normalized":false,"type":"VEC3"},{"bufferView":7,"byteOffset":0,"componentType":5126,"count":4317,"max":[1.0,0.130507096648216,1.0,1.0],"min":[-0.999987244606018,-0.684938371181488,-1.0,-1.0],"normalized":false,"type":"VEC4"},{"bufferView":8,"byteOffset":0,"componentType":5126,"count":4317,"max":[1.0,1.0,1.0],"min":[-1.0,-1.0,-1.0],"normalized":false,"type":"VEC3"},{"bufferView":9,"byteOffset":0,"componentType":5126,"count":4317,"max":[0.687974810600281,0.963621437549591],"min":[0.0177134275436401,0.105720520019531],"normalized":false,"type":"VEC2"},{"bufferView":10,"byteOffset":0,"componentType":5126,"count":4317,"max":[0.98779684305191,1.0],"min":[0.0,0.0988472700119019],"normalized":false,"type":"VEC2"},{"bufferView":11,"byteOffset":0,"componentType":5123,"count":12996,"max":[4316.0],"min":[0.0],"normalized":false,"type":"SCALAR"},{"bufferView":12,"byteOffset":0,"componentType":5126,"count":56,"max":[1.10291564464569,1.32552349567413,1.54863095283508],"min":[-1.16735887527466,0.86268824338913,0.440480291843414],"normalized":false,"type":"VEC3"},{"bufferView":13,"byteOffset":0,"componentType":5126,"count":56,"max":[1.0,0.0,-0.0000152590218931437,1.0],"min":[1.0,0.0,-0.0000457784626632929,-1.0],"normalized":false,"type":"VEC4"},{"bufferView":14,"byteOffset":0,"componentType":5126,"count":56,"max":[0.839851438999176,0.543581962585449,0.991721928119659],"min":[-0.890538036823273,0.128282770514488,-0.991718351840973],"normalized":false,"type":"VEC3"},{"bufferView":15,"byteOffset":0,"componentType":5126,"count":56,"max":[0.636024355888367,0.475712597370148],"min":[0.635521650314331,0.0364445447921753],"normalized":false,"type":"VEC2"},{"bufferView":16,"byteOffset":0,"componentType":5126,"count":56,"max":[0.984542727470398,0.972613990306854],"min":[0.682693243026733,0.193398118019104],"normalized":false,"type":"VEC2"},{"bufferView":17,"byteOffset":0,"componentType":5123,"count":120,"max":[55.0],"min":[0.0],"normalized":false,"type":"SCALAR"},{"bufferView":18,"byteOffset":0,"componentType":5126,"count":338,"max":[-0.213297829031944,1.6822555065155,1.11181247234344],"min":[-0.42585688829422,1.44067466259003,0.877298831939697],"normalized":false,"type":"VEC3"},{"bufferView":19,"byteOffset":0,"componentType":5126,"count":338,"max":[1.0,0.998351275920868,0.999207019805908,1.0],"min":[-0.998001635074615,-0.999758720397949,-0.999206125736237,-1.0],"normalized":false,"type":"VEC4"},{"bufferView":20,"byteOffset":0,"componentType":5126,"count":338,"max":[1.0,1.0,1.0],"min":[-1.0,-0.0000184928703674814,-1.0],"normalized":false,"type":"VEC3"},{"bufferView":21,"byteOffset":0,"componentType":5126,"count":338,"max":[0.640228390693665,0.635377883911133],"min":[0.58090728521347,0.105720520019531],"normalized":false,"type":"VEC2"},{"bufferView":22,"byteOffset":0,"componentType":5126,"count":338,"max":[0.697295844554901,0.985611200332642],"min":[0.678198039531708,0.228891491889954],"normalized":false,"type":"VEC2"},{"bufferView":23,"byteOffset":0,"componentType":5123,"count":1560,"max":[337.0],"min":[0.0],"normalized":false,"type":"SCALAR"},{"bufferView":24,"byteOffset":0,"componentType":5126,"count":42,"max":[1.93083167076111,0.768776297569275,1.54649472236633],"min":[1.86658084392548,0.671762943267822,0.442615926265717],"normalized":false,"type":"VEC3"},{"bufferView":25,"byteOffset":0,"componentType":5126,"count":42,"max":[1.0,0.0,-0.0000152590218931437,1.0],"min":[1.0,0.0,-0.0000457784626632929,-1.0],"normalized":false,"type":"VEC4"},{"bufferView":26,"byteOffset":0,"componentType":5126,"count":42,"max":[0.931115508079529,0.978052377700806,0.594740867614746],"min":[0.208006367087364,-0.598429799079895,-0.594636023044586],"normalized":false,"type":"VEC3"},{"bufferView":27,"byteOffset":0,"componentType":5126,"count":42,"max":[0.987286984920502,0.972744822502136],"min":[0.987286865711212,0.972744822502136],"normalized":false,"type":"VEC2"},{"bufferView":28,"byteOffset":0,"componentType":5126,"count":42,"max":[0.975845515727997,0.719590425491333],"min":[0.975423157215118,0.641385674476624],"normalized":false,"type":"VEC2"},{"bufferView":29,"byteOffset":0,"componentType":5123,"count":60,"max":[41.0],"min":[0.0],"normalized":false,"type":"SCALAR"}],"asset":{"generator":"Godot Engine v4.4.stable.mono.official@4c311cbee68c0b66ff8ebb8b0defdd9979dd2a41","version":"2.0"},"bufferViews":[{"buffer":0,"byteLength":57840,"byteOffset":0,"byteStride":12,"target":34962},{"buffer":0,"byteLength":77120,"byteOffset":57840,"byteStride":16,"target":34962},{"buffer":0,"byteLength":57840,"byteOffset":134960,"byteStride":12,"target":34962},{"buffer":0,"byteLength":38560,"byteOffset":192800,"byteStride":8,"target":34962},{"buffer":0,"byteLength":38560,"byteOffset":231360,"byteStride":8,"target":34962},{"buffer":0,"byteLength":29904,"byteOffset":269920,"target":34963},{"buffer":0,"byteLength":51804,"byteOffset":299824,"byteStride":12,"target":34962},{"buffer":0,"byteLength":69072,"byteOffset":351628,"byteStride":16,"target":34962},{"buffer":0,"byteLength":51804,"byteOffset":420700,"byteStride":12,"target":34962},{"buffer":0,"byteLength":34536,"byteOffset":472504,"byteStride":8,"target":34962},{"buffer":0,"byteLength":34536,"byteOffset":507040,"byteStride":8,"target":34962},{"buffer":0,"byteLength":25992,"byteOffset":541576,"target":34963},{"buffer":0,"byteLength":672,"byteOffset":567568,"byteStride":12,"target":34962},{"buffer":0,"byteLength":896,"byteOffset":568240,"byteStride":16,"target":34962},{"buffer":0,"byteLength":672,"byteOffset":569136,"byteStride":12,"target":34962},{"buffer":0,"byteLength":448,"byteOffset":569808,"byteStride":8,"target":34962},{"buffer":0,"byteLength":448,"byteOffset":570256,"byteStride":8,"target":34962},{"buffer":0,"byteLength":240,"byteOffset":570704,"target":34963},{"buffer":0,"byteLength":4056,"byteOffset":570944,"byteStride":12,"target":34962},{"buffer":0,"byteLength":5408,"byteOffset":575000,"byteStride":16,"target":34962},{"buffer":0,"byteLength":4056,"byteOffset":580408,"byteStride":12,"target":34962},{"buffer":0,"byteLength":2704,"byteOffset":584464,"byteStride":8,"target":34962},{"buffer":0,"byteLength":2704,"byteOffset":587168,"byteStride":8,"target":34962},{"buffer":0,"byteLength":3120,"byteOffset":589872,"target":34963},{"buffer":0,"byteLength":504,"byteOffset":592992,"byteStride":12,"target":34962},{"buffer":0,"byteLength":672,"byteOffset":593496,"byteStride":16,"target":34962},{"buffer":0,"byteLength":504,"byteOffset":594168,"byteStride":12,"target":34962},{"buffer":0,"byteLength":336,"byteOffset":594672,"byteStride":8,"target":34962},{"buffer":0,"byteLength":336,"byteOffset":595008,"byteStride":8,"target":34962},{"buffer":0,"byteLength":120,"byteOffset":595344,"target":34963}],"buffers":[{"byteLength":595464,"uri":"Polizei1-light0.bin"}],"extensions":{"KHR_lights_punctual":{"lights":[{"range":5.0,"spot":{"innerConeAngle":0.642598509788513,"outerConeAngle":0.785398185253143},"type":"spot"},{"range":5.0,"spot":{"innerConeAngle":0.642598509788513,"outerConeAngle":0.785398185253143},"type":"spot"},{"color":[0.243137255311012,0.0274509806185961,1.0],"range":5.0,"spot":{"innerConeAngle":0.642598509788513,"outerConeAngle":0.785398185253143},"type":"spot"},{"color":[0.922157168388367,0.150633782148361,0.205168068408966],"range":5.0,"spot":{"innerConeAngle":0.642598509788513,"outerConeAngle":0.785398185253143},"type":"spot"}]}},"extensionsUsed":["GODOT_single_root","KHR_lights_punctual","KHR_materials_emissive_strength","KHR_materials_unlit"],"images":[{"uri":"textures%2FScheinwerfer_004_emission.png"},{"uri":"textures%2FScheinwerfer_004_emission2.png"},{"uri":"textures%2FScheinwerfer_004_emission3.png"},{"uri":"textures%2FScheinwerfer_004_emission4.png"},{"uri":"textures%2FScheinwerfer_004_emission5.png"}],"materials":[{"doubleSided":true,"extensions":{"KHR_materials_unlit":{}},"name":"Räder_006","pbrMetallicRoughness":{"baseColorFactor":[1.0,1.0,1.0,1.0],"baseColorTexture":{"index":0},"metallicFactor":0.0,"roughnessFactor":1.0}},{"doubleSided":true,"extensions":{"KHR_materials_unlit":{}},"name":"Auto_008","pbrMetallicRoughness":{"baseColorFactor":[1.0,1.0,1.0,1.0],"baseColorTexture":{"index":1},"metallicFactor":0.0,"roughnessFactor":1.0}},{"alphaMode":"BLEND","doubleSided":true,"extensions":{},"name":"Glas_005","pbrMetallicRoughness":{"baseColorFactor":[1.0,1.0,1.0,0.706421971321106],"metallicFactor":0.0,"roughnessFactor":0.0688073486089706}},{"doubleSided":true,"emissiveFactor":[0.0,0.0,0.0],"emissiveTexture":{"index":2},"extensions":{"KHR_materials_emissive_strength":{"emissiveStrength":2.0}},"name":"Scheinwerfer_003","pbrMetallicRoughness":{"baseColorFactor":[0.0,0.0,0.0,1.0],"metallicFactor":1.0,"roughnessFactor":1.0}},{"doubleSided":true,"emissiveFactor":[0.0,0.0,0.0],"emissiveTexture":{"index":4},"extensions":{"KHR_materials_emissive_strength":{"emissiveStrength":10.0}},"name":"Scheinwerfer_004","pbrMetallicRoughness":{"baseColorFactor":[1.0,1.0,1.0,1.0],"baseColorTexture":{"index":3},"metallicFactor":0.0,"roughnessFactor":0.5}}],"meshes":[{"extras":{"targetNames":[]},"primitives":[{"attributes":{"NORMAL":2,"POSITION":0,"TANGENT":1,"TEXCOORD_0":3,"TEXCOORD_1":4},"indices":5,"material":0,"mode":4}]},{"extras":{"targetNames":[]},"primitives":[{"attributes":{"NORMAL":8,"POSITION":6,"TANGENT":7,"TEXCOORD_0":9,"TEXCOORD_1":10},"indices":11,"material":1,"mode":4},{"attributes":{"NORMAL":14,"POSITION":12,"TANGENT":13,"TEXCOORD_0":15,"TEXCOORD_1":16},"indices":17,"material":2,"mode":4},{"attributes":{"NORMAL":20,"POSITION":18,"TANGENT":19,"TEXCOORD_0":21,"TEXCOORD_1":22},"indices":23,"material":3,"mode":4},{"attributes":{"NORMAL":26,"POSITION":24,"TANGENT":25,"TEXCOORD_0":27,"TEXCOORD_1":28},"indices":29,"material":4,"mode":4}]}],"nodes":[{"children":[1,4,5,6,7],"name":"Polizei1-downsized"},{"children":[2,3],"name":"default_carlights","rotation":[0.999847710132599,-0.0000000437047411594449,0.0174524486064911,-0.000000000762871044113211],"scale":[0.739858865737915,0.970860362052917,0.990919411182404],"translation":[0.480926990509033,0.683138966560364,1.96538543701172]},{"extensions":{"KHR_lights_punctual":{"light":0}},"name":"SpotLight3D"},{"extensions":{"KHR_lights_punctual":{"light":1}},"name":"SpotLight3D2","translation":[-1.15225005149841,0.0,0.0]},{"mesh":0,"name":"Polizeiräder","rotation":[0.0,-0.707106828689575,0.0,0.707106709480286],"translation":[1.00156855583191,0.0,0.0]},{"mesh":1,"name":"Polizeiauto","rotation":[0.0,-0.707106828689575,0.0,0.707106709480286],"translation":[1.00156855583191,0.0,0.0]},{"extensions":{"KHR_lights_punctual":{"light":2}},"name":"SpotLight3D3","translation":[0.0,1.50886726379395,-0.341938674449921]},{"extensions":{"KHR_lights_punctual":{"light":3}},"name":"SpotLight3D22","rotation":[0.998022317886353,0.0,0.0,0.0628602206707001],"translation":[0.0,1.50886726379395,-0.285643965005875]}],"samplers":[{"magFilter":9729,"minFilter":9987,"wrapS":10497,"wrapT":10497}],"scene":0,"scenes":[{"nodes":[0]}],"textures":[{"sampler":0,"source":0},{"sampler":0,"source":1},{"sampler":0,"source":2},{"sampler":0,"source":3},{"sampler":0,"source":4}]}